<mxfile host="app.diagrams.net" agent="Mozilla/5.0 (Windows NT 10.0; Win64; x64) AppleWebKit/537.36 (KHTML, like Gecko) Chrome/128.0.0.0 Safari/537.36" version="24.7.8">
  <diagram name="Page-1" id="Flb4YOd4EDFstr-ZZE8U">
    <mxGraphModel dx="1050" dy="530" grid="1" gridSize="10" guides="1" tooltips="1" connect="1" arrows="1" fold="1" page="1" pageScale="1" pageWidth="827" pageHeight="1169" math="0" shadow="0">
      <root>
        <mxCell id="0" />
        <mxCell id="1" parent="0" />
        <mxCell id="zYFZ9StQUsAxEPzQP2vl-3" value="" style="edgeStyle=orthogonalEdgeStyle;rounded=0;orthogonalLoop=1;jettySize=auto;html=1;" edge="1" parent="1" source="zYFZ9StQUsAxEPzQP2vl-1" target="zYFZ9StQUsAxEPzQP2vl-2">
          <mxGeometry relative="1" as="geometry" />
        </mxCell>
        <mxCell id="zYFZ9StQUsAxEPzQP2vl-1" value="start&amp;nbsp;" style="rounded=1;whiteSpace=wrap;html=1;" vertex="1" parent="1">
          <mxGeometry x="290" y="40" width="120" height="60" as="geometry" />
        </mxCell>
        <mxCell id="zYFZ9StQUsAxEPzQP2vl-6" value="" style="edgeStyle=orthogonalEdgeStyle;rounded=0;orthogonalLoop=1;jettySize=auto;html=1;" edge="1" parent="1" source="zYFZ9StQUsAxEPzQP2vl-2" target="zYFZ9StQUsAxEPzQP2vl-5">
          <mxGeometry relative="1" as="geometry" />
        </mxCell>
        <mxCell id="zYFZ9StQUsAxEPzQP2vl-2" value="x: int&lt;div&gt;&quot;enter a number&quot;&lt;/div&gt;&lt;div&gt;&lt;br&gt;&lt;/div&gt;" style="shape=card;whiteSpace=wrap;html=1;" vertex="1" parent="1">
          <mxGeometry x="310" y="170" width="80" height="100" as="geometry" />
        </mxCell>
        <mxCell id="zYFZ9StQUsAxEPzQP2vl-8" value="" style="edgeStyle=orthogonalEdgeStyle;rounded=0;orthogonalLoop=1;jettySize=auto;html=1;" edge="1" parent="1" source="zYFZ9StQUsAxEPzQP2vl-5" target="zYFZ9StQUsAxEPzQP2vl-7">
          <mxGeometry relative="1" as="geometry" />
        </mxCell>
        <mxCell id="zYFZ9StQUsAxEPzQP2vl-5" value="y: int&lt;div&gt;&quot;enter a number&quot;&lt;/div&gt;" style="shape=card;whiteSpace=wrap;html=1;" vertex="1" parent="1">
          <mxGeometry x="310" y="350" width="80" height="100" as="geometry" />
        </mxCell>
        <mxCell id="zYFZ9StQUsAxEPzQP2vl-10" value="" style="edgeStyle=orthogonalEdgeStyle;rounded=0;orthogonalLoop=1;jettySize=auto;html=1;" edge="1" parent="1" source="zYFZ9StQUsAxEPzQP2vl-7" target="zYFZ9StQUsAxEPzQP2vl-9">
          <mxGeometry relative="1" as="geometry">
            <Array as="points">
              <mxPoint x="80" y="640" />
            </Array>
          </mxGeometry>
        </mxCell>
        <mxCell id="zYFZ9StQUsAxEPzQP2vl-11" value="yes" style="edgeLabel;html=1;align=center;verticalAlign=middle;resizable=0;points=[];" vertex="1" connectable="0" parent="zYFZ9StQUsAxEPzQP2vl-10">
          <mxGeometry x="-0.3593" y="1" relative="1" as="geometry">
            <mxPoint as="offset" />
          </mxGeometry>
        </mxCell>
        <mxCell id="zYFZ9StQUsAxEPzQP2vl-13" value="" style="edgeStyle=orthogonalEdgeStyle;rounded=0;orthogonalLoop=1;jettySize=auto;html=1;" edge="1" parent="1" source="zYFZ9StQUsAxEPzQP2vl-7" target="zYFZ9StQUsAxEPzQP2vl-12">
          <mxGeometry relative="1" as="geometry" />
        </mxCell>
        <mxCell id="zYFZ9StQUsAxEPzQP2vl-14" value="NO" style="edgeLabel;html=1;align=center;verticalAlign=middle;resizable=0;points=[];" vertex="1" connectable="0" parent="zYFZ9StQUsAxEPzQP2vl-13">
          <mxGeometry x="-0.3907" y="-2" relative="1" as="geometry">
            <mxPoint as="offset" />
          </mxGeometry>
        </mxCell>
        <mxCell id="zYFZ9StQUsAxEPzQP2vl-22" style="edgeStyle=orthogonalEdgeStyle;rounded=0;orthogonalLoop=1;jettySize=auto;html=1;exitX=0.5;exitY=1;exitDx=0;exitDy=0;" edge="1" parent="1">
          <mxGeometry relative="1" as="geometry">
            <mxPoint x="360" y="900" as="targetPoint" />
            <mxPoint x="360" y="780" as="sourcePoint" />
          </mxGeometry>
        </mxCell>
        <mxCell id="zYFZ9StQUsAxEPzQP2vl-7" value="x &amp;gt; y ?" style="rhombus;whiteSpace=wrap;html=1;" vertex="1" parent="1">
          <mxGeometry x="272.5" y="560" width="155" height="150" as="geometry" />
        </mxCell>
        <mxCell id="zYFZ9StQUsAxEPzQP2vl-24" style="edgeStyle=orthogonalEdgeStyle;rounded=0;orthogonalLoop=1;jettySize=auto;html=1;" edge="1" parent="1" source="zYFZ9StQUsAxEPzQP2vl-9" target="zYFZ9StQUsAxEPzQP2vl-12">
          <mxGeometry relative="1" as="geometry" />
        </mxCell>
        <mxCell id="zYFZ9StQUsAxEPzQP2vl-9" value="print &quot;positive&quot;" style="shape=document;whiteSpace=wrap;html=1;boundedLbl=1;" vertex="1" parent="1">
          <mxGeometry x="30" y="740" width="120" height="80" as="geometry" />
        </mxCell>
        <mxCell id="zYFZ9StQUsAxEPzQP2vl-12" value="print &quot;negative or zero&quot;" style="shape=document;whiteSpace=wrap;html=1;boundedLbl=1;" vertex="1" parent="1">
          <mxGeometry x="600" y="740" width="120" height="80" as="geometry" />
        </mxCell>
        <mxCell id="zYFZ9StQUsAxEPzQP2vl-27" value="end" style="rounded=1;whiteSpace=wrap;html=1;" vertex="1" parent="1">
          <mxGeometry x="300" y="900" width="120" height="60" as="geometry" />
        </mxCell>
      </root>
    </mxGraphModel>
  </diagram>
</mxfile>
